Normalized EMG Linear Envelopes
nRows=115
nColumns=4

endheader
time	 med_gas_r	  soleus_r	 tib_ant_r	
2.6875	  0.008292	  0.017999	  0.035156	
2.75	  0.007760	  0.018408	  0.035182	
2.8125	  0.007425	  0.018757	  0.035190	
2.875	  0.007304	  0.018927	  0.035165	
2.9375	  0.007294	  0.018789	  0.035100	
3	  0.007340	  0.018415	  0.035018	
3.0625	  0.007458	  0.018057	  0.034933	
3.125	  0.007678	  0.017874	  0.034806	
3.1875	  0.007998	  0.017876	  0.034608	
3.25	  0.008291	  0.018059	  0.034404	
3.3125	  0.008368	  0.018558	  0.034263	
3.375	  0.008191	  0.019674	  0.034184	
3.4375	  0.007970	  0.021505	  0.034189	
3.5	  0.007975	  0.023500	  0.034338	
3.5625	  0.008265	  0.024669	  0.034652	
3.625	  0.008647	  0.024447	  0.035105	
3.6875	  0.008892	  0.023313	  0.035681	
3.75	  0.008929	  0.022311	  0.036332	
3.8125	  0.008807	  0.021929	  0.036875	
3.875	  0.008567	  0.021756	  0.037058	
3.9375	  0.008213	  0.021432	  0.036807	
4	  0.007841	  0.021342	  0.036282	
4.0625	  0.007690	  0.021844	  0.035693	
4.125	  0.007910	  0.022560	  0.035230	
4.1875	  0.008331	  0.023041	  0.035076	
4.25	  0.008618	  0.023267	  0.035302	
4.3125	  0.008633	  0.023209	  0.035686	
4.375	  0.008494	  0.022845	  0.035739	
4.4375	  0.008272	  0.022431	  0.034984	
4.5	  0.007903	  0.021764	  0.032954	
4.5625	  0.007412	  0.019719	  0.029108	
4.625	  0.006982	  0.015817	  0.024099	
4.6875	  0.006869	  0.012154	  0.022375	
4.75	  0.007574	  0.013374	  0.033914	
4.8125	  0.010086	  0.025204	  0.072426	
4.875	  0.015420	  0.052306	  0.146873	
4.9375	  0.023541	  0.095083	  0.248619	
5	  0.033070	  0.146555	  0.349234	
5.0625	  0.042101	  0.193115	  0.421024	
5.125	  0.048894	  0.222121	  0.462625	
5.1875	  0.052359	  0.230549	  0.496010	
5.25	  0.052792	  0.225600	  0.536695	
5.3125	  0.051805	  0.218617	  0.577556	
5.375	  0.050888	  0.217715	  0.602694	
5.4375	  0.050338	  0.222265	  0.605203	
5.5	  0.049950	  0.225903	  0.590429	
5.5625	  0.049978	  0.225291	  0.571096	
5.625	  0.050611	  0.221229	  0.560427	
5.6875	  0.051319	  0.214246	  0.564085	
5.75	  0.051455	  0.204653	  0.575262	
5.8125	  0.050853	  0.194265	  0.580906	
5.875	  0.049864	  0.185966	  0.578092	
5.9375	  0.048957	  0.181701	  0.579592	
6	  0.048096	  0.180874	  0.596688	
6.0625	  0.047257	  0.183030	  0.624047	
6.125	  0.047198	  0.189904	  0.649319	
6.1875	  0.048414	  0.201055	  0.669145	
6.25	  0.050008	  0.211232	  0.683769	
6.3125	  0.050430	  0.214655	  0.681641	
6.375	  0.049004	  0.209911	  0.650069	
6.4375	  0.046620	  0.201090	  0.602927	
6.5	  0.045124	  0.195356	  0.574428	
6.5625	  0.045968	  0.199042	  0.579471	
6.625	  0.049115	  0.213730	  0.596946	
6.6875	  0.052829	  0.232336	  0.596655	
6.75	  0.054955	  0.241946	  0.573888	
6.8125	  0.054926	  0.236819	  0.552560	
6.875	  0.054123	  0.225020	  0.556639	
6.9375	  0.054027	  0.217760	  0.584907	
7	  0.054593	  0.218120	  0.616506	
7.0625	  0.054833	  0.222438	  0.636602	
7.125	  0.054348	  0.226253	  0.647378	
7.1875	  0.053432	  0.226715	  0.651378	
7.25	  0.052202	  0.222547	  0.638994	
7.3125	  0.050592	  0.214577	  0.603321	
7.375	  0.048675	  0.205120	  0.555245	
7.4375	  0.046495	  0.194042	  0.515316	
7.5	  0.044347	  0.179068	  0.499035	
7.5625	  0.043069	  0.162629	  0.512535	
7.625	  0.043223	  0.153036	  0.555325	
7.6875	  0.044476	  0.157924	  0.618969	
7.75	  0.046244	  0.178365	  0.679488	
7.8125	  0.048026	  0.205016	  0.704620	
7.875	  0.049359	  0.222999	  0.683488	
7.9375	  0.050640	  0.228367	  0.639094	
8	  0.053089	  0.232309	  0.600461	
8.0625	  0.056872	  0.243432	  0.576628	
8.125	  0.060317	  0.256227	  0.567188	
8.1875	  0.061284	  0.259099	  0.578593	
8.25	  0.058940	  0.246815	  0.611886	
8.3125	  0.054654	  0.225682	  0.646114	
8.375	  0.050889	  0.208011	  0.655107	
8.4375	  0.048955	  0.201617	  0.636894	
8.5	  0.048454	  0.205874	  0.610921	
8.5625	  0.048857	  0.216126	  0.595316	
8.625	  0.050651	  0.229442	  0.598110	
8.6875	  0.054147	  0.243785	  0.615428	
8.75	  0.057560	  0.251924	  0.631625	
8.8125	  0.058189	  0.245099	  0.631637	
8.875	  0.055715	  0.225925	  0.613303	
8.9375	  0.052082	  0.206785	  0.586456	
9	  0.048439	  0.194220	  0.562314	
9.0625	  0.044655	  0.185729	  0.542638	
9.125	  0.040996	  0.178799	  0.520152	
9.1875	  0.038093	  0.173081	  0.488553	
9.25	  0.035920	  0.167662	  0.450008	
9.3125	  0.034122	  0.161604	  0.412610	
9.375	  0.032680	  0.153920	  0.380002	
9.4375	  0.031522	  0.143166	  0.348544	
9.5	  0.030022	  0.129711	  0.314993	
9.5625	  0.027458	  0.115175	  0.277706	
9.625	  0.023727	  0.098729	  0.234212	
9.6875	  0.019398	  0.077890	  0.186183	
9.75	  0.015125	  0.052279	  0.139700	
9.8125	  0.011098	  0.023893	  0.096859	
